<svg id="Layer_1" data-name="Layer 1" xmlns="http://www.w3.org/2000/svg" viewBox="0 0 1848.29 390.71"><defs><style>.cls-1{fill:#192332;}.cls-2{fill:#28aa80;}.cls-3{fill:#fff;}</style></defs><path class="cls-1" d="M489.65,219.2a71.18,71.18,0,0,0,36,10.17c20.56,0,32.58-10.86,32.58-26.57,0-14.56-8.32-22.88-29.34-31-25.42-9-41.13-22.19-41.13-44.13,0-24.27,20.1-42.29,50.37-42.29,15.94,0,27.49,3.7,34.42,7.63l-5.54,16.4a62,62,0,0,0-29.57-7.39c-21.26,0-29.35,12.71-29.35,23.33,0,14.56,9.47,21.72,31,30,26.34,10.17,39.74,22.87,39.74,45.75,0,24-17.79,44.82-54.52,44.82-15,0-31.43-4.39-39.75-9.93Z" transform="translate(-72 -6.5)"/><path class="cls-1" d="M638.44,99.75v32.11h29.12v15.48H638.44v60.31c0,13.86,3.93,21.72,15.25,21.72A45.41,45.41,0,0,0,665.48,228l.92,15.25c-3.93,1.62-10.17,2.77-18,2.77-9.47,0-17.1-3-22-8.55-5.78-6-7.86-15.94-7.86-29.11v-61H601.24V131.86h17.33v-26.8Z" transform="translate(-72 -6.5)"/><path class="cls-1" d="M709.37,191.47c.47,27.5,18,38.82,38.36,38.82,14.55,0,23.33-2.54,31-5.78l3.46,14.56C775,242.3,762.75,246,745,246c-34.43,0-55-22.64-55-56.37s19.87-60.31,52.44-60.31c36.51,0,46.21,32.12,46.21,52.68a76.79,76.79,0,0,1-.69,9.47ZM769,176.92c.24-12.94-5.31-33-28.18-33-20.57,0-29.58,18.94-31.2,33Z" transform="translate(-72 -6.5)"/><path class="cls-1" d="M822.82,162.13c0-11.55-.24-21-.93-30.27h17.79l.93,18h.69c6.24-10.63,16.64-20.57,35.12-20.57,15.25,0,26.8,9.24,31.65,22.41h.46A46.14,46.14,0,0,1,921,137.18c6.7-5.09,14.1-7.86,24.72-7.86,14.79,0,36.74,9.71,36.74,48.52v65.85H962.6V180.38c0-21.48-7.86-34.42-24.26-34.42-11.55,0-20.56,8.55-24,18.48a33.61,33.61,0,0,0-1.62,10.17v69.08H892.82v-67c0-17.79-7.85-30.73-23.33-30.73-12.71,0-22,10.16-25.19,20.33a28.14,28.14,0,0,0-1.61,9.94v67.46H822.82Z" transform="translate(-72 -6.5)"/><path class="cls-1" d="M1024.52,162.13c0-11.55-.23-21-.92-30.27h17.79l.92,18h.69c6.24-10.63,16.64-20.57,35.12-20.57,15.25,0,26.8,9.24,31.66,22.41h.46a46,46,0,0,1,12.48-14.55c6.7-5.09,14.09-7.86,24.72-7.86,14.78,0,36.73,9.71,36.73,48.52v65.85H1164.3V180.38c0-21.48-7.85-34.42-24.26-34.42-11.55,0-20.56,8.55-24,18.48a33.62,33.62,0,0,0-1.61,10.17v69.08h-19.87v-67c0-17.79-7.86-30.73-23.34-30.73-12.71,0-22,10.16-25.18,20.33a27.92,27.92,0,0,0-1.62,9.94v67.46h-19.87Z" transform="translate(-72 -6.5)"/><path class="cls-1" d="M1288.14,243.69l-1.61-14.09h-.7c-6.23,8.78-18.25,16.63-34.19,16.63-22.64,0-34.2-15.94-34.2-32.11,0-27,24-41.82,67.24-41.59v-2.31c0-9.24-2.54-25.88-25.42-25.88a55.77,55.77,0,0,0-29.11,8.32l-4.62-13.4c9.24-6,22.64-9.94,36.74-9.94,34.19,0,42.51,23.34,42.51,45.75v41.82c0,9.7.46,19.18,1.85,26.8Zm-3-57.07c-22.18-.46-47.36,3.47-47.36,25.19,0,13.17,8.78,19.4,19.17,19.4,14.56,0,23.8-9.24,27-18.71a21.31,21.31,0,0,0,1.15-6.47Z" transform="translate(-72 -6.5)"/><path class="cls-2" d="M1344.52,219.2a71.18,71.18,0,0,0,36,10.17c20.56,0,32.58-10.86,32.58-26.57,0-14.56-8.32-22.88-29.34-31-25.42-9-41.13-22.19-41.13-44.13,0-24.27,20.1-42.29,50.37-42.29,15.94,0,27.49,3.7,34.42,7.63l-5.54,16.4a62,62,0,0,0-29.57-7.39c-21.26,0-29.35,12.71-29.35,23.33,0,14.56,9.48,21.72,31,30,26.34,10.17,39.74,22.87,39.74,45.75,0,24-17.79,44.82-54.52,44.82-15,0-31.43-4.39-39.74-9.93Z" transform="translate(-72 -6.5)"/><path class="cls-2" d="M1493.31,99.75v32.11h29.12v15.48h-29.12v60.31c0,13.86,3.93,21.72,15.25,21.72a45.35,45.35,0,0,0,11.79-1.39l.92,15.25c-3.93,1.62-10.16,2.77-18,2.77-9.47,0-17.1-3-22-8.55-5.78-6-7.86-15.94-7.86-29.11v-61h-17.32V131.86h17.32v-26.8Z" transform="translate(-72 -6.5)"/><path class="cls-2" d="M1647.88,213.19c0,11.56.23,21.72.93,30.5h-18l-1.16-18.25h-.46a42.09,42.09,0,0,1-37,20.79c-17.56,0-38.58-9.7-38.58-49V131.86H1574v61.93c0,21.25,6.47,35.58,25,35.58,13.63,0,23.11-9.48,26.8-18.49a29.6,29.6,0,0,0,1.85-10.39V131.86h20.33Z" transform="translate(-72 -6.5)"/><path class="cls-2" d="M1787.2,79.65V214.81c0,9.94.23,21.26.93,28.88h-18.25l-.93-19.41h-.46c-6.24,12.48-19.87,21.95-38.12,21.95-27,0-47.83-22.87-47.83-56.83-.23-37.2,22.87-60.08,50.14-60.08,17.09,0,28.65,8.09,33.73,17.1h.46V79.65Zm-20.33,97.73a36.06,36.06,0,0,0-.92-8.55c-3-12.94-14.1-23.57-29.35-23.57-21,0-33.5,18.49-33.5,43.21,0,22.64,11.09,41.36,33,41.36,13.63,0,26.11-9,29.81-24.26a35.48,35.48,0,0,0,.92-8.78Z" transform="translate(-72 -6.5)"/><path class="cls-2" d="M1837.34,131.86l24.49,66.08c2.54,7.4,5.31,16.18,7.16,22.88h.47c2.07-6.7,4.38-15.25,7.16-23.34l22.18-65.62h21.49l-30.5,79.72c-14.56,38.35-24.49,58-38.36,70-9.93,8.78-19.87,12.25-25,13.17l-5.08-17.09a54,54,0,0,0,17.79-9.94,61.85,61.85,0,0,0,17.1-22.64c.92-2.08,1.61-3.7,1.61-4.85a17.77,17.77,0,0,0-1.38-5.32l-41.36-103Z" transform="translate(-72 -6.5)"/><path class="cls-1" d="M495.94,315.6v36.88c0,13.95,6.2,19.87,14.51,19.87,9.25,0,15.16-6.1,15.16-19.87V315.6h8.14v36.32c0,19.14-10.08,27-23.57,27-12.76,0-22.37-7.3-22.37-26.62V315.6Z" transform="translate(-72 -6.5)"/><path class="cls-1" d="M547.42,345.27c0-4.62-.09-8.41-.37-12.11h7.21l.46,7.4h.19a16.41,16.41,0,0,1,14.78-8.41c6.2,0,15.81,3.69,15.81,19v26.71h-8.13V352.11c0-7.21-2.69-13.22-10.36-13.22a11.54,11.54,0,0,0-10.9,8.32,11.68,11.68,0,0,0-.56,3.79v26.89h-8.13Z" transform="translate(-72 -6.5)"/><path class="cls-1" d="M637.34,312.27v54.07c0,4,.1,8.5.37,11.55h-7.3l-.37-7.76h-.18c-2.5,5-8,8.78-15.25,8.78-10.82,0-19.13-9.15-19.13-22.74-.1-14.88,9.15-24,20-24,6.84,0,11.46,3.23,13.5,6.83h.18V312.27Zm-8.13,39.1a14.22,14.22,0,0,0-.37-3.42,12,12,0,0,0-11.74-9.43c-8.41,0-13.4,7.4-13.4,17.29,0,9.05,4.44,16.54,13.22,16.54a12.22,12.22,0,0,0,11.92-9.71,13.91,13.91,0,0,0,.37-3.51Z" transform="translate(-72 -6.5)"/><path class="cls-1" d="M655.36,357c.19,11,7.21,15.52,15.35,15.52a29.3,29.3,0,0,0,12.38-2.31l1.39,5.83a36.35,36.35,0,0,1-14.88,2.77c-13.77,0-22-9.06-22-22.55s7.95-24.12,21-24.12c14.6,0,18.48,12.84,18.48,21.07a31.7,31.7,0,0,1-.27,3.79Zm23.85-5.83C679.3,346,677.08,338,667.93,338c-8.22,0-11.83,7.58-12.47,13.21Z" transform="translate(-72 -6.5)"/><path class="cls-1" d="M697.14,347.12c0-5.27-.1-9.8-.37-14h7.11l.28,8.78h.37c2-6,6.93-9.79,12.38-9.79a9.07,9.07,0,0,1,2.32.27v7.67a12.65,12.65,0,0,0-2.78-.27c-5.73,0-9.79,4.34-10.9,10.44a22.33,22.33,0,0,0-.37,3.79v23.84h-8Z" transform="translate(-72 -6.5)"/><path class="cls-1" d="M726.25,369.58A21.3,21.3,0,0,0,737,372.81c5.91,0,8.69-3,8.69-6.65,0-3.88-2.31-6-8.32-8.23-8-2.86-11.83-7.3-11.83-12.66,0-7.21,5.82-13.12,15.43-13.12a22.3,22.3,0,0,1,11,2.77l-2,5.91a17.42,17.42,0,0,0-9.15-2.58c-4.81,0-7.49,2.77-7.49,6.09,0,3.7,2.68,5.37,8.5,7.58,7.77,3,11.74,6.84,11.74,13.5,0,7.85-6.1,13.4-16.73,13.4a25.54,25.54,0,0,1-12.57-3.05Z" transform="translate(-72 -6.5)"/><path class="cls-1" d="M773.75,320.32v12.84H785.4v6.19H773.75v24.13c0,5.54,1.57,8.68,6.1,8.68a17.92,17.92,0,0,0,4.71-.55l.37,6.1a19.79,19.79,0,0,1-7.2,1.11c-3.79,0-6.84-1.2-8.78-3.42-2.32-2.4-3.15-6.38-3.15-11.65v-24.4h-6.93v-6.19h6.93V322.44Z" transform="translate(-72 -6.5)"/><path class="cls-1" d="M819.31,377.89l-.64-5.63h-.28a16.67,16.67,0,0,1-13.68,6.65c-9.06,0-13.68-6.38-13.68-12.85,0-10.81,9.61-16.72,26.9-16.63v-.93c0-3.69-1-10.35-10.17-10.35a22.29,22.29,0,0,0-11.64,3.33l-1.85-5.36a27.75,27.75,0,0,1,14.69-4c13.68,0,17,9.33,17,18.3v16.72a62.35,62.35,0,0,0,.74,10.72Zm-1.2-22.82c-8.87-.19-18.94,1.38-18.94,10.07,0,5.27,3.51,7.76,7.67,7.76a11.12,11.12,0,0,0,10.81-7.48,8.42,8.42,0,0,0,.46-2.59Z" transform="translate(-72 -6.5)"/><path class="cls-1" d="M839.09,345.27c0-4.62-.09-8.41-.37-12.11h7.21l.46,7.4h.19a16.41,16.41,0,0,1,14.78-8.41c6.2,0,15.81,3.69,15.81,19v26.71H869V352.11c0-7.21-2.68-13.22-10.35-13.22a11.54,11.54,0,0,0-10.9,8.32,11.68,11.68,0,0,0-.56,3.79v26.89h-8.13Z" transform="translate(-72 -6.5)"/><path class="cls-1" d="M929,312.27v54.07c0,4,.1,8.5.37,11.55h-7.3l-.37-7.76h-.18c-2.5,5-7.95,8.78-15.25,8.78-10.82,0-19.13-9.15-19.13-22.74-.1-14.88,9.15-24,20.05-24,6.84,0,11.46,3.23,13.5,6.83h.18V312.27Zm-8.13,39.1a14.22,14.22,0,0,0-.37-3.42,12,12,0,0,0-11.74-9.43c-8.41,0-13.4,7.4-13.4,17.29,0,9.05,4.44,16.54,13.22,16.54a12.22,12.22,0,0,0,11.92-9.71,13.91,13.91,0,0,0,.37-3.51Z" transform="translate(-72 -6.5)"/><path class="cls-1" d="M962.1,345.27c0-4.62-.1-8.41-.37-12.11h7.11l.37,7.21h.28c2.5-4.25,6.65-8.22,14-8.22a13.21,13.21,0,0,1,12.66,9h.19a18.3,18.3,0,0,1,5-5.82,15.21,15.21,0,0,1,9.89-3.14c5.91,0,14.69,3.88,14.69,19.4v26.34h-8V352.57c0-8.59-3.14-13.77-9.7-13.77-4.62,0-8.23,3.42-9.61,7.39a13.4,13.4,0,0,0-.65,4.07v27.63H990.1v-26.8c0-7.11-3.14-12.29-9.33-12.29-5.09,0-8.78,4.07-10.08,8.13a11.27,11.27,0,0,0-.65,4v27H962.1Z" transform="translate(-72 -6.5)"/><path class="cls-1" d="M1079.65,355.16c0,16.54-11.46,23.75-22.27,23.75-12.11,0-21.44-8.87-21.44-23,0-15,9.8-23.75,22.18-23.75C1071,332.15,1079.65,341.48,1079.65,355.16Zm-35.49.46c0,9.8,5.64,17.19,13.59,17.19,7.76,0,13.59-7.3,13.59-17.37,0-7.58-3.79-17.19-13.4-17.19S1044.16,347.12,1044.16,355.62Z" transform="translate(-72 -6.5)"/><path class="cls-1" d="M1089.91,347.12c0-5.27-.09-9.8-.37-14h7.12l.27,8.78h.37c2-6,6.94-9.79,12.39-9.79a9,9,0,0,1,2.31.27v7.67a12.49,12.49,0,0,0-2.77-.27c-5.73,0-9.8,4.34-10.91,10.44a23.4,23.4,0,0,0-.37,3.79v23.84h-8Z" transform="translate(-72 -6.5)"/><path class="cls-1" d="M1123.74,357c.18,11,7.21,15.52,15.34,15.52a29.3,29.3,0,0,0,12.38-2.31l1.39,5.83a36.31,36.31,0,0,1-14.88,2.77c-13.77,0-22-9.06-22-22.55s8-24.12,21-24.12c14.61,0,18.49,12.84,18.49,21.07a31.27,31.27,0,0,1-.28,3.79Zm23.84-5.83c.09-5.17-2.12-13.21-11.27-13.21-8.23,0-11.83,7.58-12.48,13.21Z" transform="translate(-72 -6.5)"/><path class="cls-1" d="M1162.46,373.09a5.46,5.46,0,0,1,5.54-5.82c3.24,0,5.46,2.4,5.46,5.82s-2.13,5.82-5.55,5.82C1164.68,378.91,1162.46,376.42,1162.46,373.09Z" transform="translate(-72 -6.5)"/><path class="cls-1" d="M1203.4,315.6H1237v6.75h-25.51v20.7H1235v6.66h-23.57v28.18h-8Z" transform="translate(-72 -6.5)"/><path class="cls-1" d="M1285.75,355.16c0,16.54-11.46,23.75-22.28,23.75-12.11,0-21.44-8.87-21.44-23,0-15,9.8-23.75,22.18-23.75C1277.06,332.15,1285.75,341.48,1285.75,355.16Zm-35.5.46c0,9.8,5.64,17.19,13.59,17.19,7.76,0,13.59-7.3,13.59-17.37,0-7.58-3.79-17.19-13.4-17.19S1250.25,347.12,1250.25,355.62Z" transform="translate(-72 -6.5)"/><path class="cls-1" d="M1296,347.12c0-5.27-.09-9.8-.37-14h7.12l.28,8.78h.37c2-6,6.93-9.79,12.38-9.79a9,9,0,0,1,2.31.27v7.67a12.49,12.49,0,0,0-2.77-.27c-5.73,0-9.8,4.34-10.91,10.44a23.4,23.4,0,0,0-.37,3.79v23.84h-8Z" transform="translate(-72 -6.5)"/><path class="cls-1" d="M1364,333.16c-.18,3.24-.37,6.84-.37,12.29v26c0,10.26-2,16.55-6.37,20.43-4.35,4.07-10.63,5.36-16.27,5.36-5.36,0-11.27-1.29-14.88-3.7l2-6.19a25.23,25.23,0,0,0,13.13,3.51c8.32,0,14.42-4.34,14.42-15.62v-5h-.19c-2.49,4.16-7.3,7.49-14.23,7.49-11.09,0-19-9.43-19-21.81,0-15.16,9.89-23.75,20.15-23.75,7.76,0,12,4.06,13.95,7.76h.19l.37-6.75Zm-8.41,17.65a11.56,11.56,0,0,0-.46-3.69,11.71,11.71,0,0,0-11.37-8.6c-7.76,0-13.31,6.56-13.31,16.92,0,8.78,4.44,16.08,13.22,16.08A11.9,11.9,0,0,0,1355,363.2a14.22,14.22,0,0,0,.64-4.34Z" transform="translate(-72 -6.5)"/><path class="cls-1" d="M1381.67,357c.19,11,7.21,15.52,15.35,15.52a29.3,29.3,0,0,0,12.38-2.31l1.39,5.83a36.35,36.35,0,0,1-14.88,2.77c-13.77,0-22-9.06-22-22.55s7.95-24.12,21-24.12c14.6,0,18.49,12.84,18.49,21.07a31.27,31.27,0,0,1-.28,3.79Zm23.85-5.83c.09-5.17-2.13-13.21-11.28-13.21-8.22,0-11.83,7.58-12.47,13.21Z" transform="translate(-72 -6.5)"/><path class="cls-1" d="M1433.24,320.32v12.84h11.65v6.19h-11.65v24.13c0,5.54,1.57,8.68,6.1,8.68a18.06,18.06,0,0,0,4.72-.55l.37,6.1a19.89,19.89,0,0,1-7.21,1.11c-3.79,0-6.84-1.2-8.78-3.42-2.31-2.4-3.15-6.38-3.15-11.65v-24.4h-6.93v-6.19h6.93V322.44Z" transform="translate(-72 -6.5)"/><path class="cls-1" d="M1473.63,312.27h8.13v65.62h-8.13Z" transform="translate(-72 -6.5)"/><path class="cls-1" d="M1500,357c.18,11,7.21,15.52,15.34,15.52a29.3,29.3,0,0,0,12.38-2.31l1.39,5.83a36.31,36.31,0,0,1-14.88,2.77c-13.77,0-22-9.06-22-22.55s8-24.12,21-24.12c14.61,0,18.49,12.84,18.49,21.07a31.27,31.27,0,0,1-.28,3.79Zm23.84-5.83c.09-5.17-2.12-13.21-11.27-13.21-8.23,0-11.83,7.58-12.48,13.21Z" transform="translate(-72 -6.5)"/><path class="cls-1" d="M1540.63,369.58a21.3,21.3,0,0,0,10.72,3.23c5.92,0,8.69-3,8.69-6.65,0-3.88-2.31-6-8.32-8.23-8-2.86-11.83-7.3-11.83-12.66,0-7.21,5.82-13.12,15.44-13.12a22.29,22.29,0,0,1,11,2.77l-2,5.91a17.42,17.42,0,0,0-9.15-2.58c-4.81,0-7.49,2.77-7.49,6.09,0,3.7,2.68,5.37,8.51,7.58,7.76,3,11.73,6.84,11.73,13.5,0,7.85-6.1,13.4-16.72,13.4a25.48,25.48,0,0,1-12.57-3.05Z" transform="translate(-72 -6.5)"/><path class="cls-1" d="M1577.23,369.58a21.3,21.3,0,0,0,10.72,3.23c5.91,0,8.69-3,8.69-6.65,0-3.88-2.31-6-8.32-8.23-8-2.86-11.83-7.3-11.83-12.66,0-7.21,5.82-13.12,15.43-13.12a22.3,22.3,0,0,1,11,2.77l-2,5.91a17.42,17.42,0,0,0-9.15-2.58c-4.81,0-7.49,2.77-7.49,6.09,0,3.7,2.68,5.37,8.5,7.58,7.77,3,11.74,6.84,11.74,13.5,0,7.85-6.1,13.4-16.73,13.4a25.54,25.54,0,0,1-12.57-3.05Z" transform="translate(-72 -6.5)"/><path class="cls-1" d="M1612,373.09a5.46,5.46,0,0,1,5.54-5.82c3.24,0,5.46,2.4,5.46,5.82s-2.13,5.82-5.55,5.82C1614.2,378.91,1612,376.42,1612,373.09Z" transform="translate(-72 -6.5)"/><path class="cls-2" d="M228.76,78.81v54.28L348,12.41A38.46,38.46,0,0,0,327.51,6.5h-82.7C255.71,32.66,257.85,61.89,228.76,78.81Z" transform="translate(-72 -6.5)"/><path class="cls-2" d="M112,184.68c-44.47-26-15.5-81,5.75-109.26H118c21.27,28.3,50.28,83.37,5.59,109.35v54.79l93.61-94.77V78.72C188.28,61.79,190.44,32.61,201.32,6.5H110.87A39,39,0,0,0,72,45.38V262a38.59,38.59,0,0,0,7.23,22.46L112,251.26Z" transform="translate(-72 -6.5)"/><path class="cls-2" d="M292.84,138.79c17.21-29.42,47.1-26.69,73.54-15.32V45.38a38.64,38.64,0,0,0-9.6-25.46L239.37,138.79Z" transform="translate(-72 -6.5)"/><path class="cls-2" d="M292.75,150.34H228L135.49,244h55.38c26-44.47,81-15.5,109.27,5.74v.23c-28.3,21.27-83.37,50.27-109.35,5.58H124.08L87.26,292.78a38.54,38.54,0,0,0,23.61,8.1H327.51A39,39,0,0,0,366.38,262V165.83C339.89,177.21,310,179.93,292.75,150.34Z" transform="translate(-72 -6.5)"/><path class="cls-3" d="M292.84,138.79H239.37L356.78,19.92A39.42,39.42,0,0,0,348,12.41L228.76,133.09V78.81c29.09-16.92,27-46.15,16.05-72.31H201.32c-10.88,26.11-13,55.29,15.89,72.22v66.07L123.6,239.56V184.77c44.69-26,15.68-81.05-5.59-109.35h-.22C96.54,103.68,67.57,158.66,112,184.68v66.58L79.23,284.47a39.07,39.07,0,0,0,8,8.31l36.82-37.27h66.71c26,44.69,81,15.69,109.35-5.58v-.23c-28.27-21.24-83.25-50.21-109.27-5.74H135.49L228,150.34h64.8c17.2,29.59,47.14,26.87,73.63,15.49V123.47C339.94,112.1,310.05,109.37,292.84,138.79Z" transform="translate(-72 -6.5)"/></svg>